<svg width="224" height="46" viewBox="0 0 224 46" fill="none" xmlns="http://www.w3.org/2000/svg">
<g clip-path="url(#clip0)">
<path d="M23.7982 0C13.6041 0 8.28227 4.02135 6.52736 13.032L0 45.9929H200.573C204.612 46.0358 208.538 44.6629 211.667 42.1136C214.796 39.5642 216.929 36.0001 217.694 32.0427L224.007 0.0142271L23.7982 0Z" fill="white"/>
<path d="M24.3904 2.39844C15.2663 2.39844 10.4938 5.99986 8.91726 14.071L3.07471 43.6369H199.966C203.582 43.6738 207.096 42.4438 209.896 40.1612C212.696 37.8786 214.605 34.6882 215.29 31.1458L220.947 2.43402L24.3904 2.39844Z" fill="#0057B8"/>
<path d="M89.7497 21.0818C87.2815 21.0818 85.6621 23.2669 85.1841 25.2526C89.2432 25.2882 91.8471 24.7473 91.8471 22.7615C91.8471 21.7224 91.0053 21.0818 89.7497 21.0818ZM93.5021 33.9715C91.6889 34.8427 89.7006 35.2906 87.6881 35.2811C83.1225 35.2811 80.9253 32.491 80.9253 28.4839C80.9253 23.5373 84.5777 18.1494 90.2562 18.1494C93.5021 18.1494 95.5709 20.0071 95.5709 22.7615C95.5709 26.9679 91.1408 28.3202 84.7846 28.185C84.7194 28.9833 84.8696 29.7845 85.2198 30.5053C85.575 31.068 86.078 31.5228 86.6742 31.8202C87.2704 32.1176 87.9368 32.2463 88.6012 32.1921C90.1766 32.2019 91.7309 31.8307 93.1311 31.1103L93.5021 33.9715Z" fill="white"/>
<path d="M96.2771 34.9179L100.843 11.0176H104.795L100.201 34.9179H96.2771Z" fill="white"/>
<path d="M113.348 21.0818C110.88 21.0818 109.261 23.2669 108.783 25.2526C112.842 25.2882 115.446 24.7473 115.446 22.7615C115.446 21.7224 114.604 21.0818 113.348 21.0818ZM117.108 33.9715C115.292 34.8419 113.301 35.2897 111.287 35.2811C106.721 35.2811 104.524 32.491 104.524 28.4839C104.524 23.5373 108.176 18.1494 113.862 18.1494C117.108 18.1494 119.17 20.0071 119.17 22.7615C119.17 26.9679 114.739 28.3202 108.383 28.185C108.318 28.9833 108.468 29.7845 108.818 30.5053C109.174 31.068 109.677 31.5228 110.273 31.8202C110.869 32.1176 111.536 32.2463 112.2 32.1921C113.778 32.2019 115.334 31.8307 116.737 31.1103L117.108 33.9715Z" fill="white"/>
<path d="M130.969 34.306C129.478 34.9628 127.861 35.2859 126.232 35.2526C122.109 35.2526 119.569 32.6262 119.569 28.7188C119.543 27.3374 119.795 25.9648 120.31 24.6822C120.825 23.3996 121.592 22.2328 122.566 21.2509C123.54 20.269 124.702 19.4918 125.982 18.9652C127.262 18.4386 128.635 18.1733 130.02 18.1849C131.175 18.1779 132.321 18.3829 133.401 18.7899L132.388 21.8504C131.6 21.5055 130.745 21.3355 129.884 21.3522C126.096 21.3522 123.699 24.8184 123.699 28.249C123.699 30.7116 125.126 32.0853 127.316 32.0853C128.52 32.0896 129.71 31.8245 130.797 31.3095L130.969 34.306Z" fill="white"/>
<path d="M132.552 34.911L134.65 23.6085C135.021 21.6512 135.256 19.936 135.463 18.5196H138.88L138.502 21.3666H138.573C139.187 20.3933 140.034 19.5881 141.038 19.0238C142.042 18.4596 143.171 18.1542 144.323 18.1353C146.891 18.1353 148.04 19.7865 148.175 21.5018C148.789 20.4956 149.646 19.6598 150.668 19.0714C151.691 18.4831 152.845 18.1611 154.025 18.1353C156.258 18.1353 158.02 19.5587 158.02 22.5125C157.989 23.4473 157.899 24.3792 157.749 25.3025L155.958 34.8968H152.135L153.825 25.7438C153.971 25.0698 154.049 24.3833 154.061 23.694C154.061 22.2705 153.483 21.3381 152.063 21.3381C150.237 21.3381 148.247 23.5943 147.605 27.0321L146.178 34.8612H142.304L144.095 25.573C144.213 24.941 144.282 24.3009 144.302 23.6584C144.302 22.4413 143.931 21.3025 142.304 21.3025C140.478 21.3025 138.381 23.7865 137.774 27.1175L136.348 34.8612L132.552 34.911Z" fill="white"/>
<path d="M168.97 21.0818C166.502 21.0818 164.882 23.2669 164.404 25.2526C168.464 25.2882 171.067 24.7473 171.067 22.7615C171.067 21.7224 170.219 21.0818 168.97 21.0818ZM172.722 33.9715C170.909 34.8418 168.921 35.2896 166.908 35.2811C162.343 35.2811 160.146 32.491 160.146 28.4839C160.146 23.5373 163.798 18.1494 169.477 18.1494C172.722 18.1494 174.784 20 174.784 22.7615C174.784 26.9679 170.354 28.3202 163.998 28.185C163.939 28.9837 164.091 29.7839 164.44 30.5053C164.795 31.068 165.298 31.5228 165.895 31.8202C166.491 32.1176 167.157 32.2463 167.822 32.1921C169.397 32.2019 170.951 31.8307 172.351 31.1103L172.722 33.9715Z" fill="white"/>
<path d="M183.174 14.313L182.389 18.5194H186.077L185.471 21.5514H181.783L180.498 28.1493C180.317 28.9102 180.214 29.6877 180.192 30.4696C180.162 30.6658 180.178 30.8663 180.238 31.0554C180.299 31.2445 180.402 31.4173 180.54 31.5603C180.678 31.7034 180.847 31.8129 181.034 31.8805C181.221 31.9481 181.421 31.9718 181.618 31.95C182.072 31.9533 182.525 31.9224 182.974 31.8575L182.603 34.9109C181.77 35.1683 180.899 35.2838 180.028 35.2525C177.324 35.2525 176.14 33.7721 176.14 31.8859C176.153 30.8665 176.268 29.8509 176.482 28.8539L177.909 21.5514H175.712L176.282 18.5194H178.48L179.093 15.4589L183.174 14.313Z" fill="white"/>
<path d="M198.012 21.3451C197.481 21.2253 196.937 21.1704 196.392 21.1815C192.776 21.1815 189.929 25.2526 189.929 29.0106C189.929 30.7331 190.571 32.1423 192.298 32.1423C194.16 32.1423 196.392 29.8505 197.17 25.6797L198.012 21.3451ZM196.421 34.911C196.421 33.9359 196.557 32.6263 196.692 31.2455H196.628C195.001 34.2419 192.804 35.2811 190.707 35.2811C187.768 35.2811 185.842 32.9964 185.842 29.6939C185.842 24.1138 189.765 18.1494 197.441 18.1494C199.131 18.1502 200.812 18.3898 202.435 18.8612L200.716 27.4021C200.226 29.8605 199.987 32.3619 200.002 34.8683L196.421 34.911Z" fill="white"/>
<path d="M203.319 34.9108L207.885 11.0176H211.837L207.243 34.9108H203.319Z" fill="white"/>
<path d="M75.7818 30.6976L80.9894 4.2207H24.3902C16.2007 4.2207 12.1059 7.2741 10.7148 14.42L5.33594 41.7723H62.2277C70.5528 41.7723 74.7046 36.4342 75.7818 30.7118" fill="white"/>
<path d="M69.4899 25.7297H46.6904L47.6392 20.6621H70.4316L69.4899 25.7297Z" fill="#0057B8"/>
<path d="M48.595 15.58C48.9445 13.7152 51.2416 11.1245 53.503 11.1245H72.2148L71.2946 16.3131H48.4666L48.595 15.58Z" fill="#0057B8"/>
<path d="M23.9695 34.9611L28.4923 11.1177H34.6773L30.1545 34.9611H23.9695Z" fill="#0057B8"/>
<path d="M21.8292 11.1177C19.5678 11.1177 17.4419 12.6266 17.0924 14.4913L13.1831 34.9611H19.3681L23.8909 11.1177H21.8292Z" fill="#0057B8"/>
<path d="M45.8486 30.0356L45.5776 31.5801C45.2209 33.4449 46.7118 34.9609 48.9804 34.9609H64.6746C66.2369 34.9609 68.0418 33.3879 68.5126 30.8043L68.6339 30.0356H45.8486Z" fill="#0057B8"/>
<path d="M41.7184 11.1177C43.9798 11.1177 45.5278 12.6266 45.1711 14.4913L41.2832 34.9611H35.084L39.6139 11.1177H41.7184Z" fill="#0057B8"/>
</g>
<defs>
<clipPath id="clip0">
<rect width="224" height="46" fill="white"/>
</clipPath>
</defs>
</svg>
